<svg xmlns="http://www.w3.org/2000/svg" xmlns:xlink="http://www.w3.org/1999/xlink" x="0px" y="0px" viewBox="0 0 267 96" style="enable-background:new 0 0 267 96;" xml:space="preserve"><path d="M50.6,69.7V36.4L28.1,23.2L5.5,36.4v33.3H1V33.8l27.1-15.8l27.1,15.8v35.9H50.6z M35.3,45.1h4.5v29.1h15.3v4.6H35.3 L35.3,45.1L35.3,45.1z M25.8,50.7h4.5v28.2h-4.5V50.7z M20.8,49.4h-4.5V54h4.5V49.4z M30.3,43.8h-4.5v4.6h4.5V43.8z M39.9,38.2h-4.5 v4.6h4.5V38.2z M16.3,74.3v-18h4.5v22.6H1v-4.6H16.3z"></path><path d="M263.4,50.2v3.6h-11.3v6H265v3.6h-16.9V50.2H263.4 M248.1,40.9h16.7v3.6h-16.7V40.9z M218.5,40.9h4.4l6.8,17.3l6.8-17.3h4.3 l-9.4,22.7h-3.5L218.5,40.9L218.5,40.9z M207,40.9h3.9v22.5H207V40.9z M187.9,44.5h-7.2v-3.7h18.3v3.7h-7.2v18.9h-4V44.5z  M163.2,45.4c-3.9,9-4.1,9.7-7.7,18h-4.1l9.9-22.7h3.7l9.9,22.7h-4.2C167.2,54.7,167.1,54.6,163.2,45.4L163.2,45.4z M143.6,50.2v3.6 h-11.3v6h12.9v3.6h-16.9V50.2H143.6z M128.3,40.9H145v3.6h-16.7V40.9z M111.3,52c1.4,0,2.6-0.3,3.4-1c0.8-0.7,1.3-1.6,1.3-2.8v-0.1 c0-1.2-0.4-2.2-1.2-2.8c-0.8-0.6-2-1-3.5-1h-5.8v19h-3.9V40.9h10.1c1.4,0,2.7,0.2,3.8,0.6c1.1,0.4,2,0.9,2.7,1.7 c0.6,0.6,1.1,1.3,1.4,2.2c0.3,0.8,0.5,1.7,0.5,2.7V48c0,0.9-0.1,1.8-0.4,2.5c-0.3,0.7-0.6,1.4-1.1,2c-0.5,0.6-1,1.1-1.7,1.4 c-0.7,0.4-1.4,0.7-2.2,0.9l6.1,8.5H116L107.9,52L111.3,52L111.3,52z M84.7,63.8c-1.7,0-3.2-0.3-4.6-0.9c-1.4-0.6-2.6-1.4-3.6-2.5 c-1-1-1.8-2.3-2.4-3.7c-0.6-1.4-0.9-2.9-0.9-4.5v-0.1c0-1.6,0.3-3.1,0.9-4.5c0.6-1.4,1.4-2.6,2.4-3.7c1-1.1,2.3-1.9,3.7-2.5 c1.4-0.6,3-0.9,4.7-0.9c1,0,2,0.1,2.8,0.3c0.8,0.2,1.6,0.4,2.3,0.7c0.7,0.3,1.4,0.7,2,1.1c0.6,0.4,1.2,0.9,1.7,1.4l-2.6,2.9 c-0.9-0.8-1.9-1.5-2.9-2c-1-0.5-2.2-0.8-3.5-0.8c-1.1,0-2.1,0.2-3,0.6c-0.9,0.4-1.7,1-2.4,1.7c-0.7,0.7-1.2,1.6-1.6,2.5 c-0.4,1-0.5,2-0.5,3.1v0.1c0,1.1,0.2,2.1,0.5,3.1c0.4,1,0.9,1.8,1.6,2.6c0.7,0.7,1.5,1.3,2.4,1.7c0.9,0.4,1.9,0.6,3,0.6 c1.4,0,2.6-0.3,3.6-0.8c1-0.5,2-1.2,2.9-2.1l2.6,2.6c-0.6,0.6-1.2,1.2-1.8,1.7c-0.6,0.5-1.3,0.9-2,1.3c-0.7,0.4-1.5,0.6-2.4,0.8 C86.7,63.7,85.8,63.8,84.7,63.8L84.7,63.8z"></path></svg>